# xmcd CD database generated by RipIT
#
# Track frame offsets:
# 150
# 18292
# 37138
# 59322
# 79148
# 96474
# 114764
# 134779
# 150146
# 164866
#
# Disc length: 2409 seconds
#
# Revision: 0
# Processed by: cddbd v1.5.2PL0 Copyright (c) Steve Scherf et al.
# Submitted via: RipIT 3.8.0 www.suwald.com/ripit/ripit.html on 2010-08-03 at 10:54
#
DISCID=8109670a
DTITLE=Vasco Rossi - Stupido hotel
DYEAR=2001
DGENRE=Rock
TTITLE0=Siamo soli
TTITLE1=Ti prendo e ti porto via
TTITLE2=Standing ovation
TTITLE3=Stupido hotel
TTITLE4=Io ti accontento
TTITLE5=Perché non piangi per me
TTITLE6=Tu vuoi da me qualcosa
TTITLE7=Stendimi
TTITLE8=Quel vestito semplice
TTITLE9=Canzone generale
EXTD=YEAR: 2001 ID3G: 17\n
EXTT0=inser by selidori.\nvisits www.bloopers.it
EXTT1=
EXTT2=
EXTT3=
EXTT4=
EXTT5=
EXTT6=
EXTT7=
EXTT8=
EXTT9=
PLAYORDER=
